<?xml version="1.0" encoding="utf-8"?>
<!-- Generator: Adobe Illustrator 24.1.1, SVG Export Plug-In . SVG Version: 6.00 Build 0)  -->
<svg version="1.1" id="Layer_1" xmlns="http://www.w3.org/2000/svg" xmlns:xlink="http://www.w3.org/1999/xlink" x="0px" y="0px"
	 viewBox="0 0 512 512" style="enable-background:new 0 0 512 512;" xml:space="preserve">
<g>
	<path d="M28.4,156.4H128c20.9,0,39.6,11.1,52.7,28.5c9.2-17.2,20.7-33.1,33.9-47.3c-22.8-23.4-53.1-38.1-86.5-38.1H28.4
		C12.7,99.6,0,112.3,0,128C0,143.7,12.7,156.4,28.4,156.4z M247,244.9c15.7-47.1,64.2-88.5,103.8-88.5h52.3l-36.8,36.8
		c-11.1,11.1-11.1,29.1,0,40.2c5.6,5.6,12.8,8.3,20.1,8.3c7.3,0,14.6-2.8,20.1-8.3L512,128L406.6,22.6c-11.1-11.1-29.1-11.1-40.2,0
		c-11.1,11.1-11.1,29.1,0,40.2l36.8,36.8h-52.3c-64.7,0-134,56-157.8,127.4l-13.4,40.1c-18.2,54.8-58.9,88.5-80.1,88.5H28.4
		C12.7,355.6,0,368.3,0,384c0,15.7,12.7,28.4,28.4,28.4h71.1c52.3,0,109.9-54.8,134.1-127.4L247,244.9z M366.3,278.6
		c-11.1,11.1-11.1,29.1,0,40.2l36.8,36.8h-66.5c-36.1,0-66.3-25.3-76.5-60c-7.3,21.3-17.8,42.6-31,62.2
		c25.2,33.1,63.8,54.7,107.5,54.7h66.5l-36.8,36.8c-11.1,11.1-11.1,29.1,0,40.2c5.6,5.6,12.8,8.3,20.1,8.3c7.3,0,14.6-2.8,20.1-8.3
		L512,384L406.6,278.6C395.4,267.4,377.5,267.4,366.3,278.6z"/>
</g>
</svg>
