<?xml version="1.0" encoding="utf-8"?>
<!-- Svg Vector Icons : http://www.onlinewebfonts.com/icon -->
<!DOCTYPE svg PUBLIC "-//W3C//DTD SVG 1.1//EN" "http://www.w3.org/Graphics/SVG/1.1/DTD/svg11.dtd">
<svg version="1.1" xmlns="http://www.w3.org/2000/svg" xmlns:xlink="http://www.w3.org/1999/xlink" x="0px" y="0px" viewBox="0 0 256 256" enable-background="new 0 0 256 256" xml:space="preserve">
<metadata> Svg Vector Icons : http://www.onlinewebfonts.com/icon </metadata>
<g><g><path fill="#000000" d="M191.7,246H64.3c-12.7,0-22.7-10-22.7-22.7V86.8c0-12.7,10-22.7,22.7-22.7h12.7C85.3,32.3,104.8,10,127.6,10c22.7,0,41.8,22.3,50.5,54.1h13.6c12.7,0,22.7,10,22.7,22.7v136.4C214.4,236,204.4,246,191.7,246z M128,19.6c-19.1,0-33.6,19.1-40.5,44.6h81.4C161.2,38.2,145.8,19.6,128,19.6z M191.7,73.2h-11.8c1.4,8.2,2.3,16.4,2.3,25.5c0,0,0,0,0,0.5h9.1v7.3h-27.7v-7.3h9.6v-0.5c0-8.6-0.9-17.3-2.7-25.5H84.8c-1.4,8.2-2.3,16.8-2.3,25.5c0,0.2,0,0.3,0,0.5h-10c0-0.1,0-0.2,0-0.5c0-8.6,0.9-17.3,2.3-25.5H63.9c-7.7,0-13.6,5.9-13.6,13.6v136.4c0,7.7,5.9,13.6,13.6,13.6h127.3c7.7,0,13.6-5.9,13.6-13.6V86.8h0.5C205.3,79.1,199.4,73.2,191.7,73.2z M128.5,209.2c-22.3,0-40.5-9.1-40.5-20h7.3c0.5,6.8,15,14.1,33.2,14.1c18.2,0,32.8-7.3,33.2-14.1h7.3C168.5,200.1,150.7,209.2,128.5,209.2z M92.1,106.4H64.3v-7.3h8.2c0,0.1,0,0.2,0,0.5h10c0-0.2,0-0.3,0-0.5h9.6V106.4z"/></g></g>
</svg>